<svg xmlns="http://www.w3.org/2000/svg" viewBox="0 0 64 64">
  <rect width="64" height="64" rx="14" fill="#0b0f1a"/>
  <path
    fill="#e6e7ec"
    d="m 2.671875,-3.125 0.359375,0 c 0.09375,0.140625 0.8125,1.25 1.5,2.3125 0.09375,0.15625 0.328125,0.546875 0.4375,0.6875 C 5.046875,0 5.078125,0 5.296875,0 l 1.375,0 c 0.1875,0 0.34375,0 0.34375,-0.171875 0,-0.09375 -0.0625,-0.15625 -0.15625,-0.171875 C 6.484375,-0.421875 6,-1.09375 5.765625,-1.40625 5.6875,-1.5 5.1875,-2.15625 4.53125,-3.234375 5.40625,-3.40625 6.265625,-3.78125 6.265625,-4.96875 c 0,-1.375 -1.453125,-1.859375 -2.640625,-1.859375 l -3.125,0 c -0.1875,0 -0.34375,0 -0.34375,0.171875 0,0.171875 0.1875,0.171875 0.265625,0.171875 0.578125,0 0.625,0.078125 0.625,0.578125 l 0,4.984375 c 0,0.5 -0.046875,0.578125 -0.625,0.578125 -0.078125,0 -0.265625,0 -0.265625,0.171875 C 0.15625,0 0.3125,0 0.5,0 L 3.234375,0 C 3.40625,0 3.5625,0 3.5625,-0.171875 c 0,-0.171875 -0.171875,-0.171875 -0.28125,-0.171875 -0.5625,0 -0.609375,-0.078125 -0.609375,-0.578125 l 0,-2.203125 z m 1.921875,-0.5 c 0.28125,-0.359375 0.3125,-0.890625 0.3125,-1.328125 0,-0.484375 -0.0625,-1.015625 -0.375,-1.421875 0.40625,0.09375 1.390625,0.40625 1.390625,1.40625 0,0.65625 -0.296875,1.15625 -1.328125,1.34375 z M 2.671875,-5.9375 c 0,-0.21875 0,-0.546875 0.625,-0.546875 0.84375,0 1.265625,0.359375 1.265625,1.53125 0,1.28125 -0.3125,1.46875 -1.890625,1.46875 l 0,-2.453125 z M 1.3125,-0.34375 c 0.078125,-0.1875 0.078125,-0.46875 0.078125,-0.546875 l 0,-5.046875 c 0,-0.09375 0,-0.359375 -0.078125,-0.546875 l 1.140625,0 c -0.125,0.171875 -0.125,0.359375 -0.125,0.515625 l 0,5.078125 c 0,0.09375 0,0.359375 0.078125,0.546875 l -1.09375,0 z M 3.4375,-3.125 c 0.078125,-0.015625 0.109375,-0.03125 0.1875,-0.03125 0.15625,0 0.375,-0.015625 0.515625,-0.03125 0.15625,0.234375 1.234375,2.015625 2.0625,2.84375 l -0.96875,0 L 3.4375,-3.125 z m 0,0"
    transform="translate(5.5 58) scale(8)"
  />
</svg>
